<svg xmlns="http://www.w3.org/2000/svg" xmlns:xlink="http://www.w3.org/1999/xlink" width="80.264" height="81.147" viewBox="0 0 80.264 81.147"><defs><clipPath id="a"><rect width="80.264" height="81.147" fill="none"/></clipPath></defs><g transform="translate(102 105)"><g transform="translate(-102 -105)" clip-path="url(#a)"><path d="M65.307,25.176A6.974,6.974,0,0,1,62.68,20.56c-.4-3.089-1.865-2.386.1-3.988s2.035-1.774,2.748-3.492-.215-2.608.352-4.286,1.138-3.053,1.02-3.706a6.308,6.308,0,0,0-1.394-2.9c-.818-.843-3.977-3.868-5.447-.953S58.063,6.355,57.2,7.809s-2.842,1.841-3.584,4.252-3.434,4.516-3.648,5.032-2.489.679-2.589,1.544-2.181,1.813-2.21,2.507-2.393-.49-3.221.878S41.127,24,40.71,25.939s.751,1.319-1.271,1.184-2.493.375-2.367,1.636.112,3.169.112,3.169-1.636-1.687-2.5-.536S32.1,33.239,32.889,35.08s1.165,2.2.416,4-2.264,1.074-1.542,3.086,1.79,2.254,1.948,3.126,1.569,2.162,1.4,3.5.151,3.387.027,5.249,1.917,6.638,1.917,6.638,3.686,1.128,5.521-2.038S44.23,55.6,46.6,53.967s6.485-1.235,7.578-1.99S62,36.9,62,36.9Z" transform="translate(-26.426 0)" fill="#61a155"/><path d="M110.891,254.459a17.3,17.3,0,0,1,8.434,1.761c2.6,1.189,4.7,3.039,6.1,2.969a27.928,27.928,0,0,0,6.025-.437c2.533-.581,2.916-2.055,4.747-2.6s3.1-.564,4.546.364,2.25,1.479,1.654,3.191-1.1,2.374-1.211,3.743-.028,2.275.226,2.489.782.325-.092,1.05-2.05-.307-3.142-.434-.748-1.508-1.713.813-.3,2.379-1.059,2.826-1.774.134-3.6,1.226-2,2.327-3.728,3.46a22.022,22.022,0,0,1-5.644,2.555c-1.967.6-2.435.622-3.191,1.614s-.4,1.248-2.353,1.527-4.742-.445-5.752.333a16.825,16.825,0,0,1-3.091,2.2c-1.129.511-.88-.365-4.078-.387s-1.214-.94-6.143.17a47.79,47.79,0,0,1-11.854.956c-2.263-.069-4.474-1.641-5.271-1.1s-1.635.627-1.5.03,1.124-1.6-.293-4.259a11.89,11.89,0,0,0-4.428-4.234l.47-3.615,9.995-6.409Z" transform="translate(-62.331 -212.973)" fill="#75a702"/><path d="M133.54,136.359a16.231,16.231,0,0,1,4.777-4.33c1.692-1.039,4.266-1.168,4.965-1.748s1.911-.186,2.432-1.167a35.905,35.905,0,0,0,1.324-4.567c.326-1.062.483-5.025,1.1-7.056s2.2-1.7,2.425-2.8-.633-1.787-.561-3.064-.159-.719,1.2-2.333,1.885-1.5,1.373-2.478-3.366-2.378-3.019-3.214.262-2.286.9-3.546a5.7,5.7,0,0,0,.648-3.215c.013-1.41.244-1.967-.286-2.623s-.895.5-.53-.655.815-.859.748-2.629a15.738,15.738,0,0,1-.093-3.087c.154-.371,1.576-.761,2.044-.784s.8.006,1.553-1.532a3.931,3.931,0,0,0-.389-3.754c-.453-.841-1.317-2.071-2.013-.945a22.43,22.43,0,0,1-1.55,2.078c-.291.424-1.152-.261-1.078-.992s-1.024-1.949-2.857-1.949a4.177,4.177,0,0,0-3.656,2.183c-.7,1.126-2.142.743-2.736,3s-1.234,2.971-1.327,4.022-.843,3.134-1.293,2.838-2.8-1.815-3.42-1.421-1.607-1.647-1.165,1.149.679,3.33.3,4.8.07,2.315-1.646,2.583a38.7,38.7,0,0,0-4.814.831c-.447.25-2.335,1.208-1.592,1.625s4.158.747,4.384,3.236.09,2.542-.879,3.772.237.534-.473,3.07.067,1.77-.71,2.536-2.394,1.074-4.2,2.392-3.6,1.771-2.149,3.244a22.562,22.562,0,0,1,5.141,6.381c2.556,4.328,2.716.91,3.186,5.569s.535,5.884.535,5.884Z" transform="translate(-101.055 -66.928)" fill="#3e7f59"/><path d="M309.2,277.5c2.483-2.166-4,2.586-6.831,3.205a14.741,14.741,0,0,0-4.76,1.943,26.882,26.882,0,0,1,1.361-2.864,5.466,5.466,0,0,0,.606-1.872,16,16,0,0,1-1.984,3.259l-1.923,1.6s-3.484,1.492-4.574,1.911l-1.09.418s-.607-.47.416-2.658,2.45-5.623,2.45-5.623-.178-.4-.877.18-1.165,1.149-1.064,1.735a1.858,1.858,0,0,1-.3,1.834c-.563.528-1.01.778-1.162,1.695a13.513,13.513,0,0,1-.378,2.565c-.213.238-4.572,2.456-4.572,2.456l-3.975.744-1.01.778.082.905s1.826-1.637,3.214-.843a20.71,20.71,0,0,1,3.055,2.575c.861.684.728,1.282,2.934,1.763a27.548,27.548,0,0,0,4.235.561s-4.294-.695-5.765-2.395a21.424,21.424,0,0,0-4.014-3.3,27.1,27.1,0,0,0,3.078-.79,30.049,30.049,0,0,1,4.829-1.7c1.072-.1,2.911.991,4.3,1.24s1.908-.732,2.325.748a10.424,10.424,0,0,0,1.985,3.22s-.316-.893-.653-2.013a15.234,15.234,0,0,1-.458-1.932s.154-.371,1.676-.175a20.028,20.028,0,0,0,3.939-.106,18.749,18.749,0,0,1-3.24-.475,10.169,10.169,0,0,0-3.628-.092,9.209,9.209,0,0,1-3.338-.515l-1.759-.731a29.171,29.171,0,0,1,3.623-1,57.686,57.686,0,0,0,5.51-1.957,47.581,47.581,0,0,0,7.742-4.3" transform="translate(-233.952 -231.568)" fill="#fbbf00"/><path d="M273.574,384.177a8.856,8.856,0,0,0-4.119-.84c-1.561-.1-1.751.906-3.16-.115a30.573,30.573,0,0,1-2.487-2.013l-.62.94a13.107,13.107,0,0,0,2.25,1.479c1.232.62,2.322.2,3.2,1.113a5.1,5.1,0,0,0,1.175,1.032l-.926-1.909Z" transform="translate(-220.279 -319.058)" fill="#fbbf00"/><path d="M263.676,102.769a4.019,4.019,0,0,1-1.27,3.61c-1.728,1.677-3.651,3.274-3.651,3.274s-.9-.046-1.067,1.19a7.034,7.034,0,0,1-1.352,2.7l-.38,2.02-1.077-.992A6.437,6.437,0,0,0,256.289,112c.092-1.05.188-1.555.188-1.555l2.152-2.7.476-2.524,1.55-2.078a15.867,15.867,0,0,0-1.273,3.064,11.018,11.018,0,0,1-1.08,2.6,8.847,8.847,0,0,0,2.237-1.248,30.8,30.8,0,0,0,2.481-3.215Z" transform="translate(-213.323 -86.014)" fill="#ed5fa9"/><path d="M252.559,170.966l-.308.271c-.667.586-2.237,1.963-2.916,2.526a12.738,12.738,0,0,0-1.592,1.625l-1.085,1.509-2.283-.3s0-.546.748,1.508.52,2.611.52,2.611l-1.044,1.962,2.178-1.382s-1.255-1.392.972-4.822a25.752,25.752,0,0,1,4.811-5.514" transform="translate(-204.533 -143.092)" fill="#ed5fa9"/><path d="M173.462,209.55c-1.36,1.068-1.929.505-2.391,1.62a7.6,7.6,0,0,1-.946,2c-.62.94-1.8,2.409-1.8,2.409s1.345-.2,2.651-.314a24.907,24.907,0,0,0,3.371-.668,6.58,6.58,0,0,1-2.705,1.272c-1.481.256-4.112.8-4.112.8a4.744,4.744,0,0,0-2.155,2.153c-.928,1.683-2.682,6.181-2.682,6.181a16.526,16.526,0,0,0,2.559.736,34.166,34.166,0,0,1,3.649.318c1.288.208,3.525-1.04,3.525-1.04s-.576,1.938-2.312,1.98-3.867-1.171-5.269-.555a9.768,9.768,0,0,0-3.3,2.984,22.8,22.8,0,0,0-1.486,3.3s-.836.633.18.946,4.539-1.272,4.539-1.272-3.7,1.185-4.238,3.03-2.815,6.778-2.815,6.778a40.3,40.3,0,0,0-1.026,5.78c-.031,1.729-.049,2.048-.049,2.048s-5.068-3.52-5.092-4.292-.674,1.9.141-3.1,2.72-6.273,3.468-8.9.648-3.215,1.129-4.648a4.322,4.322,0,0,0,.079-3.778c-.653-2.013-.733-2.373-.733-2.373l2.929,4.809s.023.772.789-2.176a41.015,41.015,0,0,1,2-5.374c.4-1.248.291-.424.082-3.232s-.113-3.313-.625-4.288a23.063,23.063,0,0,1-1.594-3.057,17.491,17.491,0,0,1-.5-2.93c.033-1.184-.023-4.909-.023-4.909l.715,2.692a4.511,4.511,0,0,1,1.6-.534c.838-.087,1.443-.163,1.443-.163a12.724,12.724,0,0,0-2.432,1.167,3.588,3.588,0,0,0-.406.7s-.445.8.285,2.623.982,1.5,1.517,3.243a25.885,25.885,0,0,1,1.08,5.674c.126,1.9.293.122.99-1s1.075-3.691,1.46-4.619a33.377,33.377,0,0,1,1.741-3.088s-.4,1.248-.962,2.867-.63,2.9-1.013,4.37a39.2,39.2,0,0,1-1.386,3.888s2.132-2.925,2.813-3.187,1.977-2.554,2.89-3.372,1.489-2.757,2.365-2.937,2.065-.558,2.065-.558" transform="translate(-126.623 -168.887)" fill="#ed5fa9"/><path d="M170.572,291.19c.224,1.944.453.841-.1,3.006A15.031,15.031,0,0,1,168.888,298s-.993.459-1.448-.928-1.3-3.481-1.3-3.481a26.8,26.8,0,0,0,1.751,3.231c.471.522.877-.18,1.01-.778s1.674-4.857,1.674-4.857" transform="translate(-139.05 -243.716)" fill="#ed5fa9"/><path d="M81.911,33.66c-.834,1.62-1.018.906-2,3.223a21.714,21.714,0,0,1-1.887,4.124c-1.28,2.2-1.944,3.674-1.944,3.674s.948-.718,2.065-1.587a16.549,16.549,0,0,1,3.7-1.726,8.529,8.529,0,0,0-3.2,1.912c-1.428,1.4-1.365,1.528-.975,2s1.119,2.138.659,1.858-1.2-1.311-1.6-1.459-.524-.411-1.238.287-2.179.686-2.468,1.758a6.777,6.777,0,0,1-1.159,2.787c-.474.359-1.521,1.04-1.521,1.04l-.763,1.432s2.285-.968,4.237-1.954,3.331-1.649,3.331-1.649a12.348,12.348,0,0,1-3.176,2.137c-1.443.532-4.407,2.1-4.407,2.1a3.392,3.392,0,0,1-.947,2.222,17.311,17.311,0,0,0-1.442,2.036c-.205.245-1.194,2.881-1.194,2.881s.313-.256.754-.611c.831-.669,2.113-1.688,2.6-2,.743-.473,1.535-.176,2.271-.329a24.875,24.875,0,0,0,3.536-1.894s.114.9-1.167,1.6-3.339.465-3.983.975-3.749,2.459-4.109,3.72a20.815,20.815,0,0,0-.353,2.445,2.78,2.78,0,0,0,.107,1.221,5.128,5.128,0,0,1,2.49-1.213c1.436-.213,3.87-.373,3.87-.373s.015.865-2.016.854-3.672.448-3.926,1.426a41.514,41.514,0,0,1-1.589,5.74c-.735,1.657-.353,2.445-.353,2.445l2.087.461s-1.175-1.085-1.669.232-.933,3.087-.933,3.087-4.14,12.837-4.486,16.466a87.9,87.9,0,0,0,.026,11.071,13.4,13.4,0,0,0,.334,3.025s-5.738-.973-6.063-1.31-.172-4.36-.172-4.36.957-11.884,1.9-15.609.577-6.657,2.062-9.106,1.64-1.962,3.076-3.678S62,70.434,62.393,69.4s1.379-2.167,1.074-3.463.211-2.068-1.31-2.532-3.191-.231-3.3-1.452a20.6,20.6,0,0,0-.411-2.517s.319,2.16,1.381,2.344a8.2,8.2,0,0,1,2.653.459c.955.466,1.77,2.812,1.77,2.812s.734-3.161,1.455-5.683,1.209-2.016.55-3.874-1.153-.54-1.338-2.758a12.2,12.2,0,0,1-.037-2.913s.037,2.913.822,3.53a4.936,4.936,0,0,1,1.48,2.381l.057.451a8.6,8.6,0,0,0,1.28-2.2l.954-2.542a16.365,16.365,0,0,0,.062-2.876,2.379,2.379,0,0,0-.121-2.086,2.707,2.707,0,0,1-.22-2.123s.758,1.9,1.034,2.966a15.282,15.282,0,0,1,.305,2.8s.467-.04.919-.944a25.264,25.264,0,0,1,2.263-3.017A5.8,5.8,0,0,1,74.9,45.1c.4-.171.538-.228.261-1.3s-.61-2.591.218-2.388,1.4,1.385,1.543,1.009-1.43-1.611.459-2.727.9-3.312.9-3.312l.68.9Z" transform="translate(-44.522 -28.172)" fill="#e9231d"/><path d="M26.063,368.245s.689,1.375-1.185.923-1.993-.719-2.4-.016-1.713.813-1.713.813l-2.132-1.212.283,2.077s.144,1.584-2.574.128-3.333-3.562-5.066-2.975a17.478,17.478,0,0,1-3.741.732l1.08,1.537s-4.369.036-5.734.014a9.087,9.087,0,0,0-1.872.093L0,375.275a84.306,84.306,0,0,0,11.353.252,89.571,89.571,0,0,0,13.016-2.651,8.278,8.278,0,0,0,3.345-1.986Z" transform="translate(0 -307.904)" fill="#fbc200"/></g></g></svg>